<svg width="143" height="128" viewBox="0 0 143 128" fill="none" xmlns="http://www.w3.org/2000/svg">
<path d="M48.6632 16.1172C50.0454 12.5628 51.9458 9.2905 54.7678 6.63882C66.0555 -4.13714 84.7147 -1.42904 92.3742 12.1114C98.1332 22.3796 104.238 32.4221 110.17 42.5775C120.075 59.4467 130.096 76.3159 139.886 93.2414C148.122 107.403 139.195 125.287 122.839 127.713C112.819 129.18 103.432 124.667 98.2484 115.865C89.5523 101.027 80.7986 86.1891 72.1024 71.4074C71.9297 71.0689 71.6993 70.7868 71.469 70.5047C70.5475 69.7713 70.1444 68.6993 69.5685 67.7402C65.7099 61.0828 61.7362 54.4818 57.8776 47.8809C55.4013 43.593 52.8097 39.3616 50.3333 35.0738C48.0873 31.2374 47.0507 27.0624 47.1659 22.6617C47.3386 20.405 47.6266 18.1482 48.6632 16.1172Z" fill="url(#paint0_linear_1_75)"/>
<path d="M48.6626 16.1172C48.1443 18.1483 47.6835 20.1794 47.5683 22.3233C47.3956 27.0624 48.605 31.4631 51.0238 35.5816C57.3587 46.2448 63.6936 56.9643 69.971 67.6838C70.5469 68.643 71.0076 69.6021 71.5835 70.5048C68.1281 76.3723 64.6727 82.1834 61.1597 88.051C56.3221 96.2317 51.4845 104.469 46.5893 112.649C46.359 112.649 46.3014 112.537 46.2438 112.367C46.1862 111.916 46.359 111.521 46.4741 111.07C48.8353 102.607 46.8773 95.1033 40.9455 88.6716C37.3173 84.7787 32.7101 82.5784 27.4118 81.8449C20.5009 80.8858 14.3964 82.6348 8.92528 86.8662C7.94624 87.5996 7.31275 88.6716 6.16094 89.2358C5.93058 89.2358 5.8154 89.1229 5.75781 88.9537C8.52215 84.2709 11.2289 79.5882 13.9932 74.9054C25.3961 55.4974 36.799 36.0894 48.2594 16.7378C48.3746 16.5121 48.5474 16.3429 48.6626 16.1172Z" fill="url(#paint1_linear_1_75)" fill-opacity="0.5"/>
<path d="M5.98811 89.1228C7.08233 88.1637 8.11895 87.1482 9.27076 86.2455C23.2652 75.4131 44.2856 83.2553 47.3379 100.407C48.0866 104.525 47.6835 108.474 46.4165 112.424C46.3589 112.762 46.3013 113.044 46.1861 113.383C45.6678 114.286 45.2071 115.245 44.6312 116.147C39.5057 124.441 31.9613 128.559 22.0558 127.939C10.7105 127.149 1.78402 118.799 0.229086 107.741C-0.519587 102.381 0.574628 97.36 3.39655 92.7336C3.97245 91.7181 4.66354 90.8154 5.29703 89.7999C5.58498 89.5742 5.4698 89.1228 5.98811 89.1228Z" fill="url(#paint2_linear_1_75)"/>
<path d="M5.98815 89.1229C5.75779 89.3486 5.75779 89.7435 5.35465 89.7999C5.29706 89.405 5.52742 89.1793 5.75779 88.8972L5.98815 89.1229Z" fill="#FABC04"/>
<path d="M46.1862 113.383C45.9559 112.988 46.1862 112.706 46.4166 112.424C46.4742 112.48 46.5894 112.593 46.647 112.649L46.1862 113.383Z" fill="#E1C025"/>
<defs>
<linearGradient id="paint0_linear_1_75" x1="95.0789" y1="0" x2="95.0789" y2="127.986" gradientUnits="userSpaceOnUse">
<stop stop-color="#10DFF1"/>
<stop offset="1" stop-color="#EA08F2"/>
</linearGradient>
<linearGradient id="paint1_linear_1_75" x1="38.6707" y1="16.1172" x2="38.6707" y2="112.649" gradientUnits="userSpaceOnUse">
<stop stop-color="#10DFF1"/>
<stop offset="1" stop-color="#EA08F2"/>
</linearGradient>
<linearGradient id="paint2_linear_1_75" x1="23.8567" y1="81.2751" x2="23.8567" y2="128" gradientUnits="userSpaceOnUse">
<stop stop-color="#A5F8FF"/>
<stop offset="1" stop-color="#FCB3FF"/>
</linearGradient>
</defs>
</svg>
